<svg width="40" height="41" viewBox="0 0 40 41" fill="none" xmlns="http://www.w3.org/2000/svg">
<rect y="0.516785" width="40" height="40.1354" rx="11.1782" fill="#3692FF"/>
<path d="M19.3143 11.691C19.8136 13.4165 18.4934 15.3178 16.9801 15.7587C15.4668 16.1996 13.3994 15.2852 12.9001 13.5597C12.4008 11.8342 13.4489 9.44345 14.9622 9.00258C16.9801 8.4147 18.815 9.96554 19.3143 11.691Z" fill="#222327"/>
<path d="M20.1465 11.691C19.6472 13.4165 20.9674 15.3178 22.4807 15.7587C23.994 16.1996 26.0614 15.2852 26.5607 13.5597C27.06 11.8342 26.0119 9.44345 24.4986 9.00258C22.4807 8.4147 20.6458 9.96554 20.1465 11.691Z" fill="#222327"/>
<path d="M29.5171 24.2966C29.5171 28.6854 25.2137 30.3168 19.3436 30.3168C13.4735 30.3168 9.26746 28.6854 9.26746 24.2966C9.26746 19.1915 13.4735 14.6643 19.3436 14.6643C25.2137 14.6643 29.5171 18.8062 29.5171 24.2966Z" fill="#F3D6DD"/>
<path d="M17.4004 23.4301C17.4004 24.8675 16.4778 26.4444 15.1885 26.4444C13.8992 26.4444 11.8165 25.2732 11.8165 23.126C11.8165 21.109 14.0665 20.3916 16.3914 20.7599C17.8164 20.9857 17.4004 21.9927 17.4004 23.4301Z" fill="#222327"/>
<path d="M16.322 23.285C16.322 23.5007 16.2571 23.6754 15.9329 23.6754C15.6087 23.6754 15.5438 23.5007 15.5438 23.285C15.5438 23.0694 15.6735 22.8947 15.9329 22.8947C16.1923 22.8947 16.322 23.0694 16.322 23.285Z" fill="white"/>
<path d="M21.3221 23.4302C21.3221 24.8676 22.2447 26.4444 23.534 26.4444C24.8233 26.4444 26.906 25.2732 26.906 23.1261C26.906 21.109 24.6561 20.3917 22.3311 20.76C20.9061 20.9858 21.3221 21.9928 21.3221 23.4302Z" fill="#222327"/>
<path d="M22.4018 23.285C22.4018 23.5006 22.4666 23.6754 22.7909 23.6754C23.1151 23.6754 23.1799 23.5006 23.1799 23.285C23.1799 23.0694 23.0502 22.8946 22.7909 22.8946C22.5315 22.8946 22.4018 23.0694 22.4018 23.285Z" fill="white"/>
<path d="M17.8753 25.5092C17.7968 25.3946 17.6403 25.3654 17.5257 25.4439C17.4111 25.5224 17.3819 25.6789 17.4604 25.7935L17.6678 25.6513L17.8753 25.5092ZM19.3178 25.1998L19.5557 25.1183C19.5209 25.0166 19.4253 24.9483 19.3178 24.9483C19.2103 24.9483 19.1147 25.0166 19.0799 25.1183L19.3178 25.1998ZM21.1753 25.7935C21.2538 25.6789 21.2245 25.5224 21.1099 25.4439C20.9954 25.3654 20.8388 25.3946 20.7603 25.5092L20.9678 25.6513L21.1753 25.7935ZM17.6678 25.6513L17.4604 25.7935C17.5299 25.8949 17.6561 26.0308 17.8253 26.1431C17.9961 26.2564 18.2243 26.3544 18.4928 26.3544V26.1029V25.8514C18.3489 25.8514 18.2162 25.7988 18.1034 25.724C17.989 25.6481 17.909 25.5583 17.8753 25.5092L17.6678 25.6513ZM18.4928 26.1029V26.3544C18.8234 26.3544 19.0692 26.1186 19.2222 25.9156C19.3837 25.7013 19.4979 25.4502 19.5557 25.2813L19.3178 25.1998L19.0799 25.1183C19.0346 25.2505 18.9425 25.4509 18.8205 25.6128C18.6899 25.7861 18.5748 25.8514 18.4928 25.8514V26.1029ZM19.3178 25.1998L19.0799 25.2813C19.1377 25.4502 19.2519 25.7013 19.4134 25.9156C19.5664 26.1186 19.8123 26.3544 20.1428 26.3544V26.1029V25.8514C20.0608 25.8514 19.9457 25.7861 19.8151 25.6128C19.6931 25.4509 19.601 25.2505 19.5557 25.1183L19.3178 25.1998ZM20.1428 26.1029V26.3544C20.4114 26.3544 20.6395 26.2564 20.8103 26.1431C20.9796 26.0308 21.1058 25.8949 21.1753 25.7935L20.9678 25.6513L20.7603 25.5092C20.7267 25.5583 20.6466 25.6481 20.5323 25.724C20.4195 25.7988 20.2867 25.8514 20.1428 25.8514V26.1029Z" fill="#222327"/>
<path d="M20.691 24.9677C20.691 25.1769 19.7489 25.4432 19.4319 25.5269C19.3641 25.5448 19.2942 25.5448 19.2265 25.5269C18.9094 25.4432 17.9674 25.1769 17.9674 24.9677C17.9674 24.7162 18.7203 24.4472 19.3292 24.4472C19.938 24.4472 20.691 24.7162 20.691 24.9677Z" fill="#222327"/>
<path d="M19.1664 18.2767C15.3822 18.2767 13.9915 16.9472 13.7665 16.1696L15.5664 14.213L19.4664 13.5358L24.8663 16.1696C24.5413 16.7967 22.9548 18.2767 19.1664 18.2767Z" fill="#222327"/>
<path d="M19.6897 11.3531C27.5095 11.3531 33.2432 16.9486 33.2434 24.3658C33.2434 30.2951 27.5097 32.4996 19.6897 32.4996C11.8699 32.4996 6.26685 30.295 6.26685 24.3658C6.2671 17.4692 11.87 11.3533 19.6897 11.3531ZM19.3831 14.7369C13.6309 14.7369 9.50914 19.2156 9.50903 24.2662C9.50903 28.6083 13.6308 30.2223 19.3831 30.2223C25.135 30.2222 29.3518 28.6081 29.3518 24.2662C29.3517 18.8346 25.135 14.7372 19.3831 14.7369Z" fill="white"/>
</svg>
